<?xml version="1.0" standalone="no"?><!DOCTYPE svg PUBLIC "-//W3C//DTD SVG 1.1//EN" "http://www.w3.org/Graphics/SVG/1.1/DTD/svg11.dtd"><svg t="1678805727296" class="icon" viewBox="0 0 1024 1024" version="1.1" xmlns="http://www.w3.org/2000/svg" p-id="2915" xmlns:xlink="http://www.w3.org/1999/xlink" width="200" height="200"><path d="M128 213.333333m42.666667 0l682.666666 0q42.666667 0 42.666667 42.666667l0 0q0 42.666667-42.666667 42.666667l-682.666666 0q-42.666667 0-42.666667-42.666667l0 0q0-42.666667 42.666667-42.666667Z" fill="#ffffff" p-id="2916"></path><path d="M128 469.333333m42.666667 0l682.666666 0q42.666667 0 42.666667 42.666667l0 0q0 42.666667-42.666667 42.666667l-682.666666 0q-42.666667 0-42.666667-42.666667l0 0q0-42.666667 42.666667-42.666667Z" fill="#ffffff" p-id="2917"></path><path d="M128 725.333333m42.666667 0l682.666666 0q42.666667 0 42.666667 42.666667l0 0q0 42.666667-42.666667 42.666667l-682.666666 0q-42.666667 0-42.666667-42.666667l0 0q0-42.666667 42.666667-42.666667Z" fill="#ffffff" p-id="2918"></path></svg>